<svg xmlns="http://www.w3.org/2000/svg" viewBox="0 0 512 512">
  <rect width="512" height="512" rx="112" fill="#08140f"/>
  <circle cx="256" cy="256" r="216" fill="#143626"/>
  <circle cx="256" cy="256" r="198" fill="none" stroke="#f0c15a" stroke-width="18"/>
  <path d="M106 302c38-74 110-114 192-96 58 13 98 52 108 104 7 36-20 66-57 66h-74c-55 0-102-18-169-74Z" fill="#42c878" stroke="#052019" stroke-width="18" stroke-linejoin="round"/>
  <path d="M285 197c34-42 94-30 118 9 17 28 5 56-28 62l-74 13c-29 5-47-36-16-84Z" fill="#54d48b" stroke="#052019" stroke-width="18" stroke-linejoin="round"/>
  <circle cx="347" cy="220" r="27" fill="#fff2a6" stroke="#052019" stroke-width="13"/>
  <circle cx="354" cy="222" r="10" fill="#221109"/>
  <path d="M117 301c-43-3-73-19-90-48 44-19 83-13 119 19Z" fill="#1f8d57" stroke="#052019" stroke-width="18" stroke-linejoin="round"/>
  <path d="M221 374l-22 62M306 374l27 58" stroke="#052019" stroke-width="34" stroke-linecap="round"/>
  <path d="M190 228l-8-42M240 211l5-46M291 215l18-40" stroke="#f0c15a" stroke-width="22" stroke-linecap="round"/>
</svg>
